<svg xmlns="http://www.w3.org/2000/svg" xmlns:xlink="http://www.w3.org/1999/xlink" width="100pt" height="100pt" viewBox="0 0 100 100" version="1.1">
    <g id="surface1">
    <path style=" stroke:none;fill-rule:nonzero;fill:rgb(58.431373%,64.705882%,64.705882%);fill-opacity:1;" d="M 60.621094 83.050781 L 39.378906 83.050781 L 34.746094 98.304688 L 65.253906 98.304688 Z M 60.621094 83.050781 "/>
    <path style=" stroke:none;fill-rule:nonzero;fill:rgb(36.862745%,37.254902%,38.431373%);fill-opacity:1;" d="M 99.152344 10.492188 L 99.152344 74.574219 L 0.847656 74.574219 L 0.847656 10.492188 C 0.769531 8.535156 2.28125 6.878906 4.238281 6.78125 L 95.761719 6.78125 C 97.71875 6.878906 99.230469 8.535156 99.152344 10.492188 Z M 99.152344 10.492188 "/>
    <path style=" stroke:none;fill-rule:nonzero;fill:rgb(74.117647%,76.470588%,78.039216%);fill-opacity:1;" d="M 99.152344 71.1875 L 99.152344 81.035156 C 99.230469 82.992188 97.71875 84.644531 95.761719 84.746094 L 4.238281 84.746094 C 2.28125 84.644531 0.769531 82.992188 0.847656 81.035156 L 0.847656 71.1875 Z M 99.152344 71.1875 "/>
    <path style=" stroke:none;fill-rule:nonzero;fill:rgb(74.117647%,76.470588%,78.039216%);fill-opacity:1;" d="M 68.644531 100 L 31.355469 100 C 30.417969 100 29.660156 99.242188 29.660156 98.304688 C 29.660156 97.367188 30.417969 96.609375 31.355469 96.609375 L 68.644531 96.609375 C 69.582031 96.609375 70.335938 97.367188 70.335938 98.304688 C 70.339844 99.242188 69.582031 100 68.644531 100 Z M 68.644531 100 "/>
    <path style=" stroke:none;fill-rule:nonzero;fill:rgb(40.392157%,72.54902%,80%);fill-opacity:1;" d="M 11.015625 47.457031 L 7.628906 47.457031 C 6.691406 47.457031 5.933594 46.699219 5.933594 45.761719 C 5.933594 44.828125 6.691406 44.066406 7.628906 44.066406 L 11.015625 44.066406 C 11.953125 44.066406 12.710938 44.828125 12.710938 45.761719 C 12.710938 46.699219 11.953125 47.457031 11.015625 47.457031 Z M 11.015625 47.457031 "/>
    <path style=" stroke:none;fill-rule:nonzero;fill:rgb(94.901961%,61.176471%,12.156863%);fill-opacity:1;" d="M 24.574219 54.238281 L 21.1875 54.238281 C 20.25 54.238281 19.492188 53.480469 19.492188 52.542969 C 19.492188 51.605469 20.25 50.847656 21.1875 50.847656 L 24.574219 50.847656 C 25.511719 50.847656 26.273438 51.605469 26.273438 52.542969 C 26.273438 53.480469 25.511719 54.238281 24.574219 54.238281 Z M 24.574219 54.238281 "/>
    <path style=" stroke:none;fill-rule:nonzero;fill:rgb(40.392157%,72.54902%,80%);fill-opacity:1;" d="M 16.101562 54.238281 L 7.628906 54.238281 C 6.691406 54.238281 5.933594 53.480469 5.933594 52.542969 C 5.933594 51.605469 6.691406 50.847656 7.628906 50.847656 L 16.101562 50.847656 C 17.035156 50.847656 17.796875 51.605469 17.796875 52.542969 C 17.796875 53.480469 17.035156 54.238281 16.101562 54.238281 Z M 16.101562 54.238281 "/>
    <path style=" stroke:none;fill-rule:nonzero;fill:rgb(94.901961%,61.176471%,12.156863%);fill-opacity:1;" d="M 24.574219 47.457031 L 17.796875 47.457031 C 16.859375 47.457031 16.101562 46.699219 16.101562 45.761719 C 16.101562 44.828125 16.859375 44.066406 17.796875 44.066406 L 24.574219 44.066406 C 25.511719 44.066406 26.273438 44.828125 26.273438 45.761719 C 26.273438 46.699219 25.511719 47.457031 24.574219 47.457031 Z M 24.574219 47.457031 "/>
    <path style=" stroke:none;fill-rule:nonzero;fill:rgb(94.901961%,61.176471%,12.156863%);fill-opacity:1;" d="M 34.183594 61.015625 L 21.1875 61.015625 C 20.25 61.015625 19.492188 60.257812 19.492188 59.320312 C 19.492188 58.386719 20.25 57.628906 21.1875 57.628906 L 34.183594 57.628906 C 35.121094 57.628906 35.882812 58.386719 35.882812 59.320312 C 35.882812 60.257812 35.121094 61.015625 34.183594 61.015625 Z M 34.183594 61.015625 "/>
    <path style=" stroke:none;fill-rule:nonzero;fill:rgb(40.392157%,72.54902%,80%);fill-opacity:1;" d="M 14.40625 61.015625 L 7.628906 61.015625 C 6.691406 61.015625 5.933594 60.257812 5.933594 59.320312 C 5.933594 58.386719 6.691406 57.628906 7.628906 57.628906 L 14.40625 57.628906 C 15.34375 57.628906 16.101562 58.386719 16.101562 59.320312 C 16.101562 60.257812 15.34375 61.015625 14.40625 61.015625 Z M 14.40625 61.015625 "/>
    <path style=" stroke:none;fill-rule:nonzero;fill:rgb(90.196078%,90.588235%,90.980392%);fill-opacity:1;" d="M 92.371094 47.457031 L 88.984375 47.457031 C 88.046875 47.457031 87.289062 46.699219 87.289062 45.761719 C 87.289062 44.828125 88.046875 44.066406 88.984375 44.066406 L 92.371094 44.066406 C 93.308594 44.066406 94.066406 44.828125 94.066406 45.761719 C 94.066406 46.699219 93.308594 47.457031 92.371094 47.457031 Z M 92.371094 47.457031 "/>
    <path style=" stroke:none;fill-rule:nonzero;fill:rgb(14.117647%,68.235294%,37.254902%);fill-opacity:1;" d="M 78.8125 54.238281 L 75.425781 54.238281 C 74.488281 54.238281 73.726562 53.480469 73.726562 52.542969 C 73.726562 51.605469 74.488281 50.847656 75.425781 50.847656 L 78.8125 50.847656 C 79.75 50.847656 80.507812 51.605469 80.507812 52.542969 C 80.507812 53.480469 79.75 54.238281 78.8125 54.238281 Z M 78.8125 54.238281 "/>
    <path style=" stroke:none;fill-rule:nonzero;fill:rgb(90.196078%,90.588235%,90.980392%);fill-opacity:1;" d="M 92.371094 54.238281 L 83.898438 54.238281 C 82.964844 54.238281 82.203125 53.480469 82.203125 52.542969 C 82.203125 51.605469 82.964844 50.847656 83.898438 50.847656 L 92.371094 50.847656 C 93.308594 50.847656 94.066406 51.605469 94.066406 52.542969 C 94.066406 53.480469 93.308594 54.238281 92.371094 54.238281 Z M 92.371094 54.238281 "/>
    <path style=" stroke:none;fill-rule:nonzero;fill:rgb(14.117647%,68.235294%,37.254902%);fill-opacity:1;" d="M 82.203125 47.457031 L 75.425781 47.457031 C 74.488281 47.457031 73.726562 46.699219 73.726562 45.761719 C 73.726562 44.828125 74.488281 44.066406 75.425781 44.066406 L 82.203125 44.066406 C 83.140625 44.066406 83.898438 44.828125 83.898438 45.761719 C 83.898438 46.699219 83.140625 47.457031 82.203125 47.457031 Z M 82.203125 47.457031 "/>
    <path style=" stroke:none;fill-rule:nonzero;fill:rgb(14.117647%,68.235294%,37.254902%);fill-opacity:1;" d="M 78.8125 61.015625 L 65.816406 61.015625 C 64.878906 61.015625 64.117188 60.257812 64.117188 59.320312 C 64.117188 58.386719 64.878906 57.628906 65.816406 57.628906 L 78.8125 57.628906 C 79.75 57.628906 80.507812 58.386719 80.507812 59.320312 C 80.507812 60.257812 79.75 61.015625 78.8125 61.015625 Z M 78.8125 61.015625 "/>
    <path style=" stroke:none;fill-rule:nonzero;fill:rgb(90.196078%,90.588235%,90.980392%);fill-opacity:1;" d="M 92.371094 61.015625 L 85.59375 61.015625 C 84.65625 61.015625 83.898438 60.257812 83.898438 59.320312 C 83.898438 58.386719 84.65625 57.628906 85.59375 57.628906 L 92.371094 57.628906 C 93.308594 57.628906 94.066406 58.386719 94.066406 59.320312 C 94.066406 60.257812 93.308594 61.015625 92.371094 61.015625 Z M 92.371094 61.015625 "/>
    <path style=" stroke:none;fill-rule:nonzero;fill:rgb(89.803922%,49.411765%,14.509804%);fill-opacity:1;" d="M 51.335938 65.53125 L 71.933594 56.703125 C 73.042969 56.226562 73.820312 55.191406 73.964844 53.992188 L 80.046875 3.796875 C 80.164062 2.835938 79.863281 1.867188 79.21875 1.140625 C 78.578125 0.414062 77.652344 0 76.683594 0 L 23.316406 0 C 22.347656 0 21.421875 0.414062 20.78125 1.140625 C 20.136719 1.867188 19.835938 2.835938 19.953125 3.796875 L 26.035156 53.992188 C 26.183594 55.191406 26.957031 56.226562 28.066406 56.703125 L 48.664062 65.53125 C 49.515625 65.894531 50.484375 65.894531 51.335938 65.53125 Z M 51.335938 65.53125 "/>
    <path style=" stroke:none;fill-rule:nonzero;fill:rgb(94.901961%,61.176471%,12.156863%);fill-opacity:1;" d="M 32.414062 50.269531 L 27.371094 8.675781 C 27.3125 8.199219 27.464844 7.714844 27.789062 7.347656 C 28.109375 6.988281 28.570312 6.78125 29.054688 6.78125 L 70.945312 6.78125 C 71.429688 6.78125 71.890625 6.988281 72.210938 7.347656 C 72.535156 7.714844 72.683594 8.199219 72.628906 8.675781 L 67.585938 50.269531 C 67.515625 50.871094 67.125 51.386719 66.570312 51.625 L 50.667969 58.441406 C 50.242188 58.621094 49.761719 58.621094 49.332031 58.441406 L 33.429688 51.625 C 32.875 51.386719 32.484375 50.871094 32.414062 50.269531 Z M 32.414062 50.269531 "/>
    <path style=" stroke:none;fill-rule:nonzero;fill:rgb(92.54902%,94.117647%,94.509804%);fill-opacity:1;" d="M 63.558594 13.558594 L 36.441406 13.558594 C 35.953125 13.558594 35.492188 13.765625 35.171875 14.128906 C 34.847656 14.492188 34.699219 14.976562 34.757812 15.457031 L 36.585938 30.699219 C 36.605469 30.785156 36.632812 30.875 36.667969 30.960938 C 36.6875 31.050781 36.714844 31.140625 36.75 31.226562 C 36.808594 31.335938 36.875 31.441406 36.957031 31.535156 C 37.074219 31.726562 37.246094 31.875 37.449219 31.960938 C 37.511719 32.003906 37.574219 32.042969 37.636719 32.074219 C 37.835938 32.160156 38.050781 32.203125 38.269531 32.203125 L 59.816406 32.203125 L 58.433594 43.671875 L 50 47.304688 L 41.566406 43.671875 L 40.800781 37.242188 C 40.691406 36.3125 39.847656 35.648438 38.917969 35.757812 C 37.988281 35.867188 37.324219 36.710938 37.4375 37.640625 L 38.316406 45.046875 C 38.390625 45.648438 38.777344 46.167969 39.335938 46.40625 L 49.320312 50.707031 C 49.753906 50.894531 50.246094 50.894531 50.679688 50.707031 L 60.664062 46.40625 C 61.222656 46.167969 61.613281 45.648438 61.683594 45.046875 L 63.414062 30.714844 C 63.414062 30.679688 63.402344 30.648438 63.402344 30.609375 C 63.402344 30.574219 63.421875 30.542969 63.421875 30.507812 C 63.414062 30.433594 63.398438 30.355469 63.375 30.277344 C 63.363281 30.167969 63.34375 30.054688 63.308594 29.945312 C 63.269531 29.847656 63.222656 29.75 63.164062 29.664062 C 63.070312 29.46875 62.925781 29.304688 62.742188 29.1875 C 62.660156 29.117188 62.570312 29.058594 62.476562 29.007812 C 62.375 28.960938 62.269531 28.925781 62.160156 28.902344 C 62.085938 28.871094 62.011719 28.84375 61.933594 28.824219 C 61.898438 28.824219 61.867188 28.835938 61.832031 28.832031 C 61.792969 28.832031 61.761719 28.8125 61.726562 28.8125 L 39.773438 28.8125 L 38.355469 16.949219 L 63.558594 16.949219 C 64.496094 16.949219 65.253906 16.191406 65.253906 15.253906 C 65.253906 14.320312 64.496094 13.558594 63.558594 13.558594 Z M 63.558594 13.558594 "/>
    </g>
</svg>
